<svg version="1.2" xmlns="http://www.w3.org/2000/svg" viewBox="0 0 1600 450" width="1640" height="200"><style>.a{fill:#fff}</style><path class="a" d="m165.4 241q6.6 0 9.2 1.8 2.8 1.7 2.8 5.8v125q0 4.1-2.8 5.8-2.6 1.8-9.2 1.8h-0.3q-6.6 0-9.4-1.8-2.5-1.7-2.5-5.8v-56.3h-93.3v56.3q0 4.1-2.8 5.8-2.5 1.8-9.2 1.8h-0.3q-6.6 0-9.3-1.8-2.6-1.7-2.6-5.8v-125q0-4.1 2.6-5.8 2.7-1.8 9.3-1.8h0.3q6.7 0 9.2 1.8 2.8 1.7 2.8 5.8v52h93.3v-52q0-4.1 2.5-5.8 2.8-1.8 9.4-1.8zm-8.7 0q6.6 0 9.2 1.8 2.7 1.7 2.7 5.8v125q0 4.1-2.7 5.8-2.6 1.8-9.2 1.8h-0.3q-6.7 0-9.4-1.8-2.6-1.7-2.6-5.8v-56.3h-93.2v56.3q0 4.1-2.8 5.8-2.6 1.8-9.2 1.8h-0.3q-6.6 0-9.4-1.8-2.6-1.7-2.6-5.8v-125q0-4.1 2.6-5.8 2.8-1.8 9.4-1.8h0.3q6.6 0 9.2 1.8 2.8 1.7 2.8 5.8v52h93.2v-52q0-4.1 2.6-5.8 2.7-1.8 9.4-1.8zm165.3 29.2q21.9 0 39.5 7.2 17.8 7.2 27.8 20.1 10.1 12.7 10.1 28.9 0 16.1-10.1 29-10 12.8-27.8 20-17.6 7.2-39.5 7.2-22 0-39.7-7.2-17.6-7.2-27.8-20-10-12.9-10-29 0-16.2 10-28.9 10.2-12.9 27.8-20.1 17.7-7.2 39.7-7.2zm0 17.2q-15.7 0-27.6 5-11.9 4.8-18.6 13.8-6.4 8.8-6.4 20.2 0 11.3 6.4 20.3 6.7 8.8 18.6 13.8 11.9 4.9 27.6 4.9 15.6 0 27.6-4.9 11.9-5 18.4-13.8 6.6-9 6.6-20.3 0-11.4-6.6-20.2-6.5-9-18.4-13.8-12-5-27.6-5zm-8.7-17.2q21.9 0 39.5 7.2 17.8 7.2 27.8 20.1 10.1 12.7 10.1 28.9 0 16.1-10.1 29-10 12.8-27.8 20-17.6 7.2-39.5 7.2-22 0-39.7-7.2-17.6-7.2-27.8-20-10-12.9-10-29 0-16.2 10-28.9 10.2-12.9 27.8-20.1 17.7-7.2 39.7-7.2zm0 17.2q-15.7 0-27.6 5-12 4.8-18.6 13.8-6.4 8.8-6.4 20.2 0 11.3 6.4 20.3 6.6 8.8 18.6 13.8 11.9 4.9 27.6 4.9 15.6 0 27.6-4.9 11.9-5 18.4-13.8 6.6-9 6.6-20.3 0-11.4-6.6-20.2-6.5-9-18.4-13.8-12-5-27.6-5zm230.6 95.2q-40.9 0-70.5-11.7-6.3-2.5-6.3-6.6 0-2.2 2-5.1 3.8-5.4 8.7-5.4 2.4 0 5 1 13.2 5.3 28.4 8.1 15.2 2.8 31.1 2.8 19.9 0 30-4.7 10.4-4.9 10.4-13.2 0-3.9-3.4-6.3-3.2-2.6-9.7-4.1-5.5-1.3-12.9-2-7.4-0.8-19-1.6-15.9-1-25.9-2.2-10-1.2-18.5-3.6-11.5-3.3-17.9-9.2-6.3-5.9-6.3-15.4 0-10.7 7.7-18.1 7.9-7.6 21.5-11.3 13.7-3.8 31.1-3.8 37 0 64.9 10.1 6.4 2.3 6.4 6.6 0 2.3-1.6 5-3.7 5.8-8.7 5.8-1.6 0-4.8-1.1-26.3-9.6-55.2-9.6-17.1 0-26.8 4.2-9.7 4.2-9.7 12.2 0 3.6 3.3 5.9 3.2 2.2 9.2 3.6 5.3 1.3 11.9 2 6.6 0.6 18.7 1.4 15 0.9 25.2 2.1 10.1 1 18.9 3.3 12.4 3.4 19.3 9.7 7.1 6.1 7.1 16.4 0 10.5-7.2 18.4-7.3 7.8-21.7 12.1-14.2 4.3-34.7 4.3zm-8.7 0q-41 0-70.5-11.7-6.3-2.5-6.3-6.6 0-2.2 2-5.1 3.8-5.4 8.7-5.4 2.4 0 5 1 13.2 5.3 28.4 8.1 15.1 2.8 31.1 2.8 19.9 0 30-4.7 10.4-4.9 10.4-13.2 0-3.9-3.4-6.3-3.3-2.6-9.7-4.1-5.5-1.3-12.9-2-7.4-0.8-19.1-1.6-15.8-1-25.8-2.2-10-1.2-18.5-3.6-11.5-3.3-17.9-9.2-6.3-5.9-6.3-15.4 0-10.7 7.7-18.1 7.9-7.6 21.5-11.3 13.7-3.8 31.1-3.8 37 0 64.9 10.1 6.4 2.3 6.4 6.6 0 2.3-1.6 5-3.7 5.8-8.7 5.8-1.6 0-4.8-1.1-26.3-9.6-55.2-9.6-17.1 0-26.8 4.2-9.7 4.2-9.7 12.2 0 3.6 3.2 5.9 3.3 2.2 9.2 3.6 5.4 1.3 12 2 6.6 0.6 18.7 1.4 15 0.9 25.2 2.1 10.1 1 18.8 3.3 12.5 3.4 19.4 9.7 7.1 6.1 7.1 16.4 0 10.5-7.3 18.4-7.2 7.8-21.6 12.1-14.2 4.3-34.7 4.3zm225.1-112.4q20 0 35.6 6.8 15.8 6.8 24.7 19.5 9 12.7 9 29.9 0 17.1-9 29.9-8.9 12.7-24.7 19.5-15.6 6.8-35.6 6.8-30.4 0-51.2-19.2v55.3q0 4-2.7 5.8-2.6 1.7-9.2 1.7h-0.4q-6.6 0-9.3-1.7-2.6-1.8-2.6-5.8v-139.6q0-4 2.4-5.8 2.4-1.7 8.7-1.7h0.4q6.3 0 8.7 1.7 2.4 1.8 2.4 5.8v10.8q10.2-9.5 23.6-14.6 13.3-5.1 29.2-5.1zm-1.7 17.2q-14.3 0-25.6 4.6-11.1 4.6-17.6 13.5-6.3 8.8-6.3 20.9 0 12 6.3 20.9 6.5 8.8 17.6 13.4 11.3 4.7 25.6 4.7 14.4 0 24.7-4.9 10.5-5 16-13.8 5.5-9 5.5-20.3 0-11.4-5.5-20.2-5.5-9-16-13.8-10.3-5-24.7-5zm-7.1-17.2q20.1 0 35.7 6.8 15.8 6.8 24.7 19.5 9 12.7 9 29.9 0 17.1-9 29.9-8.9 12.7-24.7 19.5-15.6 6.8-35.7 6.8-30.3 0-51.1-19.2v55.3q0 4-2.7 5.8-2.6 1.7-9.2 1.7h-0.4q-6.6 0-9.3-1.7-2.6-1.8-2.6-5.8v-139.6q0-4 2.4-5.8 2.4-1.7 8.7-1.7h0.3q6.3 0 8.8 1.7 2.4 1.8 2.4 5.8v10.8q10.1-9.5 23.5-14.6 13.4-5.1 29.2-5.1zm-1.6 17.2q-14.3 0-25.6 4.6-11.2 4.6-17.6 13.5-6.3 8.8-6.3 20.9 0 12 6.3 20.9 6.4 8.8 17.6 13.4 11.3 4.7 25.6 4.7 14.4 0 24.7-4.9 10.5-5 16-13.8 5.5-9 5.5-20.3 0-11.4-5.5-20.2-5.5-9-16-13.8-10.3-5-24.7-5zm224.4-14.7q5.5 0 7.8 1.9 2.4 1.7 2.4 6v82.7h51.8q5.5 0 7.7 2 2.4 1.8 2.4 6.3 0 4.6-2.4 6.5-2.2 1.9-7.7 1.9h-126.5q-5.5 0-7.9-1.9-2.3-1.9-2.3-6.5 0-4.5 2.3-6.3 2.4-2 7.9-2h50.5v-73.8h-40.8q-5.5 0-8-1.9-2.2-2-2.2-6.5 0-4.5 2.2-6.4 2.5-2 8-2zm10.1-28.3q0 4.2-3.2 5.9-3.2 1.7-12.1 1.7-8.9 0-12.1-1.7-3.2-1.7-3.2-5.9v-15.1q0-4.2 3.2-5.8 3.2-1.7 12.1-1.7 8.9 0 12.1 1.7 3.2 1.6 3.2 5.8zm-18.9 28.3q5.5 0 7.8 1.9 2.4 1.7 2.4 6v82.7h51.8q5.5 0 7.8 2 2.4 1.8 2.4 6.4 0 4.5-2.4 6.5-2.3 1.8-7.8 1.8h-126.5q-5.5 0-7.9-1.8-2.3-2-2.3-6.5 0-4.6 2.3-6.4 2.4-2 7.9-2h50.5v-73.8h-40.8q-5.5 0-7.9-1.9-2.3-2-2.3-6.5 0-4.5 2.3-6.4 2.4-2 7.9-2zm10.1-28.3q0 4.2-3.2 5.9-3.2 1.7-12.1 1.7-8.9 0-12.1-1.7-3.2-1.7-3.2-5.9v-15.1q0-4.2 3.2-5.8 3.2-1.7 12.1-1.7 8.9 0 12.1 1.7 3.2 1.6 3.2 5.8zm284 113.9q2.1 3 2.1 5.2 0 3.7-5.4 6.1-12.5 5.7-28 9.4-15.5 3.6-28.9 3.6-27.4 0-40.2-10.2-12.6-10.4-12.6-30.8v-42.8h-32.7q-5.5 0-7.9-1.9-2.3-2-2.3-6.5 0-4.5 2.3-6.4 2.4-2 7.9-2h32.7v-34.8q0-4.1 2.8-5.8 2.7-1.7 9.3-1.7 6.6 0 9.4 1.7 2.7 1.7 2.7 5.8v34.8h66.3q5.5 0 7.8 2 2.4 1.9 2.4 6.4 0 4.5-2.4 6.5-2.3 1.9-7.8 1.9h-66.3v41.3q0 13.2 6.5 19.4 6.4 6.1 22.1 6.1 10.8 0 22.7-3.1 12-3.1 23.1-8.4 2.3-1.1 5-1.1 5.5 0 9.4 5.3zm-8.7 0q2.1 3 2.1 5.2 0 3.7-5.4 6.1-12.6 5.7-28 9.4-15.5 3.6-28.9 3.6-27.5 0-40.2-10.2-12.6-10.4-12.6-30.8v-42.8h-32.8q-5.4 0-7.9-1.9-2.2-2-2.2-6.5 0-4.5 2.2-6.4 2.5-2 7.9-2h32.8v-34.8q0-4.1 2.7-5.8 2.8-1.7 9.4-1.7 6.6 0 9.4 1.7 2.7 1.7 2.7 5.8v34.8h66.3q5.5 0 7.8 2 2.4 1.9 2.4 6.4 0 4.5-2.4 6.5-2.3 1.9-7.8 1.9h-66.3v41.3q0 13.2 6.5 19.4 6.4 6.1 22.1 6.1 10.8 0 22.7-3.1 12-3.1 23.1-8.4 2.3-1.1 5-1.1 5.5 0 9.4 5.3zm152.4-88.1q30.3 0 45.5 9.7 15.1 9.8 15.1 29v64.7q0 4.1-2.4 5.8-2.4 1.8-8.7 1.8h-0.3q-6.3 0-8.7-1.8-2.4-1.7-2.4-5.8v-7.9q-13.1 8-28.4 12.5-15.2 4.4-32.2 4.4-16.1 0-28.5-4-12.4-4-19.4-11.7-6.9-7.7-6.9-18.2 0-18.5 17.9-27.2 18.1-8.7 46.8-8.7 25.6 0 49 5.9v-9.8q0-11.3-8.8-16.5-8.7-5.4-28.3-5.4-12.1 0-25.1 2.5-13.1 2.4-24.9 6.7-2.6 1-5 1-5.2 0-8.9-5.5-1.7-2.8-1.7-4.7 0-4 5.9-6.2 13.6-5.1 29.1-7.8 15.6-2.8 31.3-2.8zm-21.5 96q32.1 0 57.9-19.2v-12.6q-10.9-2.6-23.5-3.8-12.6-1.4-25.4-1.4-18.5 0-29.3 4.6-10.7 4.5-10.7 14.5 0 8.5 8.1 13.3 8.2 4.6 22.9 4.6zm12.8-96q30.3 0 45.5 9.7 15.1 9.8 15.1 29v64.7q0 4.1-2.4 5.8-2.4 1.8-8.7 1.8h-0.3q-6.3 0-8.7-1.8-2.5-1.7-2.5-5.8v-7.9q-13 8-28.4 12.5-15.1 4.4-32.1 4.4-16.1 0-28.5-4-12.5-4-19.4-11.7-6.9-7.7-6.9-18.2 0-18.5 17.9-27.2 18.1-8.7 46.8-8.7 25.6 0 49 5.9v-9.8q0-11.3-8.8-16.5-8.8-5.4-28.3-5.4-12.1 0-25.2 2.5-13 2.4-24.8 6.7-2.6 1-5 1-5.2 0-8.9-5.5-1.8-2.8-1.8-4.7 0-4 6-6.2 13.6-5.1 29.1-7.8 15.6-2.8 31.3-2.8zm-21.5 96q32.1 0 57.9-19.2v-12.6q-10.9-2.6-23.5-3.8-12.6-1.4-25.4-1.4-18.5 0-29.3 4.6-10.7 4.5-10.7 14.5 0 8.5 8.1 13.3 8.2 4.6 22.9 4.6zm308-2.9q5.5 0 7.7 2 2.4 1.8 2.4 6.4 0 4.5-2.4 6.5-2.2 1.8-7.7 1.8h-126.5q-5.5 0-7.9-1.8-2.3-2-2.3-6.5 0-4.6 2.3-6.4 2.4-2 7.9-2h50.5v-118.9h-44.1q-5.5 0-7.9-1.8-2.3-2-2.3-6.5 0-4.6 2.3-6.4 2.4-2 7.9-2h53.9 4.2q5.5 0 7.7 1.9 2.5 1.7 2.5 6v127.7zm-8.7 0q5.4 0 7.7 2 2.4 1.8 2.4 6.4 0 4.5-2.4 6.5-2.3 1.8-7.7 1.8h-126.6q-5.4 0-7.9-1.8-2.2-2-2.2-6.5 0-4.6 2.2-6.4 2.5-2 7.9-2h50.6v-118.9h-44.1q-5.5 0-7.9-1.8-2.3-2-2.3-6.5 0-4.6 2.3-6.4 2.4-2 7.9-2h53.9 4.2q5.5 0 7.7 1.9 2.5 1.7 2.5 6v127.7z"/></svg>
