<svg version="1.2" xmlns="http://www.w3.org/2000/svg" viewBox="0 0 1640 664" width="1640" height="664"><style>.a{fill:#11ca5d}</style><path class="a" d="m445 212.8h29.9q-0.8 9.8-1.4 19.9-0.5 10.2-0.8 20.3-0.4 10.1-0.5 19.8-0.2 9.7-0.2 18.5 0 8.8 0.2 18.5 0.1 9.8 0.3 19.9 0.3 10.1 0.8 20.4 0.5 10.2 1.3 19.9h-29.6q0.8-9.7 1.3-19.9 0.6-10.3 0.9-20.4 0.3-10.1 0.5-19.9 0.2-9.7 0.2-18.5h-65.5q0 8.8 0.1 18.5 0.2 9.8 0.5 19.9 0.3 10.1 0.8 20.4 0.5 10.2 1.3 19.9h-29.8q1-9.7 1.5-19.9 0.6-10.3 0.9-20.4 0.3-10.1 0.5-19.9 0.1-9.7 0.1-18.5 0-8.8-0.1-18.5-0.2-9.7-0.5-19.8-0.3-10.1-0.9-20.3-0.5-10.1-1.5-19.9h30.1q-1.6 16.1-2.2 32.9-0.5 16.7-0.8 32.2h65.3q-0.2-15.5-0.8-32.2-0.6-16.8-1.9-32.9zm-8.6 0h29.9q-0.8 9.8-1.4 19.9-0.5 10.2-0.8 20.3-0.3 10.1-0.5 19.8-0.2 9.7-0.2 18.5 0 8.8 0.2 18.5 0.2 9.8 0.3 19.9 0.3 10.1 0.8 20.4 0.5 10.2 1.3 19.9h-29.6q0.8-9.7 1.3-19.9 0.6-10.3 0.9-20.4 0.4-10.1 0.5-19.9 0.2-9.7 0.2-18.5h-65.5q0 8.8 0.1 18.5 0.2 9.8 0.5 19.9 0.3 10.1 0.8 20.4 0.5 10.2 1.3 19.9h-29.8q1-9.7 1.5-19.9 0.6-10.3 0.9-20.4 0.3-10.1 0.5-19.9 0.2-9.7 0.2-18.5 0-8.8-0.2-18.5-0.2-9.7-0.5-19.8-0.3-10.1-0.9-20.3-0.5-10.1-1.5-19.9h30.1q-1.6 16.1-2.2 32.9-0.5 16.7-0.8 32.2h65.3q-0.1-15.5-0.8-32.2-0.6-16.8-1.9-32.9zm209.4 78.7q0 21.2-5.3 36.6-5.2 15.4-14.6 25.4-9.2 10-21.8 14.8-12.6 4.8-27 4.8-14.6 0-27.2-4.8-12.6-4.8-21.9-14.8-9.3-10-14.7-25.4-5.2-15.4-5.2-36.6 0-21 5.2-36.3 5.4-15.5 14.7-25.5 9.3-10.1 21.9-14.9 12.6-4.8 27.2-4.8 14.4 0 27 4.8 12.6 4.8 21.8 14.9 9.4 10 14.6 25.5 5.3 15.3 5.3 36.3zm-27.4 0q0-17.6-3.2-30.4-3.1-12.8-8.7-21-5.6-8.4-13.2-12.3-7.5-4-16.2-4-8.9 0-16.6 4-7.4 3.9-13.2 12.3-5.5 8.2-8.7 21-3.2 12.8-3.2 30.4 0 17.8 3.2 30.6 3.2 12.8 8.7 21 5.8 8.3 13.2 12.3 7.7 3.8 16.6 3.8 8.7 0 16.2-3.8 7.6-4 13.2-12.3 5.6-8.2 8.7-21 3.2-12.8 3.2-30.6zm18.8 0q0 21.2-5.3 36.6-5.2 15.4-14.6 25.4-9.2 10-21.8 14.8-12.5 4.8-27 4.8-14.6 0-27.2-4.8-12.6-4.8-21.9-14.8-9.3-10-14.7-25.4-5.2-15.4-5.2-36.6 0-21 5.2-36.3 5.4-15.5 14.7-25.5 9.3-10.1 21.9-14.9 12.6-4.8 27.2-4.8 14.5 0 27 4.8 12.6 4.8 21.8 14.9 9.4 10 14.6 25.5 5.3 15.3 5.3 36.3zm-27.4 0q0-17.6-3.2-30.4-3.1-12.8-8.7-21-5.6-8.4-13.2-12.3-7.5-4-16.2-4-8.9 0-16.5 4-7.5 3.9-13.2 12.3-5.6 8.2-8.8 21-3.2 12.8-3.2 30.4 0 17.8 3.2 30.6 3.2 12.8 8.8 21 5.7 8.3 13.2 12.3 7.6 3.8 16.5 3.8 8.7 0 16.2-3.8 7.6-4 13.2-12.3 5.6-8.2 8.7-21 3.2-12.8 3.2-30.6zm105.9 68.7q6.3 0 12.4-1.4 6.2-1.5 11-4.7 4.7-3.2 7.6-8.1 2.8-5.1 2.8-12.3 0-6.1-3.5-11.4-3.3-5.3-8.9-10.1-5.5-4.8-12.7-9.2-7.1-4.6-14.6-9.2-7.5-4.6-14.6-9.4-7.2-4.9-12.7-10.2-5.6-5.5-9.1-11.8-3.3-6.3-3.3-13.8 0-10.8 5.5-18.3 5.6-7.4 14.2-11.9 8.5-4.5 18.9-6.5 10.5-1.9 20.3-1.9 10.4 0 19.9 1.2 9.7 1.2 18.6 2.6v22.7q-5.1-3.1-9.7-5.6-4.4-2.5-9.1-4.2-4.4-1.8-9.2-2.8-4.7-1-10.1-1-6.7 0-12.8 1.4-5.8 1.2-10.3 4-4.3 2.7-7 7-2.5 4.2-2.5 10 0 8.1 5.8 14.9 5.9 6.6 14.8 12.7 8.9 6.1 19.3 12.1 10.3 6.1 19.2 13.1 8.9 6.9 14.8 15.3 5.9 8.2 5.9 18.9 0 8-2.6 14.1-2.5 6.1-7 10.7-4.3 4.4-10 7.5-5.7 3.1-12.2 5.1-6.5 1.8-13.5 2.6-6.9 0.8-13.4 0.8-7.8 0-14.3-0.4-6.5-0.4-12.2-1.1-5.6-0.8-10.5-1.7-4.8-1-9.4-2.2v-23.4q4.9 3.3 9.8 6.3 5 2.8 10.2 5 5.4 2.2 11.3 3.4 5.9 1.2 12.9 1.2zm-8.6 0q6.4 0 12.4-1.4 6.2-1.5 11-4.7 4.7-3.2 7.6-8.1 2.9-5.1 2.9-12.3 0-6.1-3.5-11.4-3.4-5.3-8.9-10.1-5.6-4.8-12.8-9.2-7.1-4.6-14.6-9.2-7.5-4.6-14.6-9.4-7.2-4.9-12.7-10.2-5.6-5.5-9.1-11.8-3.3-6.3-3.3-13.8 0-10.8 5.5-18.3 5.6-7.4 14.2-11.9 8.6-4.5 18.9-6.5 10.5-1.9 20.3-1.9 10.4 0 19.9 1.2 9.7 1.2 18.6 2.6v22.7q-5.1-3.1-9.7-5.6-4.4-2.5-9-4.2-4.5-1.8-9.3-2.8-4.7-1-10.1-1-6.7 0-12.8 1.4-5.8 1.2-10.3 4-4.3 2.7-7 7-2.5 4.2-2.5 10 0 8.1 5.9 14.9 5.8 6.6 14.7 12.7 8.9 6.1 19.3 12.1 10.3 6.1 19.2 13.1 8.9 6.9 14.8 15.3 5.9 8.2 5.9 18.9 0 8-2.6 14.1-2.5 6.1-7 10.7-4.2 4.4-10 7.5-5.7 3.1-12.2 5.1-6.5 1.8-13.5 2.6-6.9 0.8-13.4 0.8-7.8 0-14.3-0.4-6.5-0.4-12.2-1.1-5.6-0.8-10.5-1.7-4.8-1-9.4-2.2v-23.4q4.9 3.3 9.9 6.3 4.9 2.8 10.1 5 5.4 2.2 11.3 3.4 5.9 1.2 12.9 1.2zm99.6-147.4h53.1q13.4 0 23.9 3.4 10.5 3.2 17.6 9.5 7.4 6.2 11 15.3 3.8 9 3.8 20.5 0 4.9-1.2 10.5-1.3 5.5-4.2 10.8-2.8 5.4-7.3 10.5-4.4 4.9-11 8.6-6.3 3.8-14.9 6.1-8.4 2.2-19.2 2.2h-24.5q0.3 14.6 0.8 29.9 0.6 15.3 1.9 29.9h-29.8q1-9.7 1.5-19.9 0.6-10.3 0.9-20.4 0.3-10.1 0.5-19.9 0.2-9.7 0.2-18.5 0-8.8-0.2-18.5-0.2-9.7-0.5-19.8-0.3-10.1-0.9-20.3-0.5-10.1-1.5-19.9zm51.6 12.9h-22.6q-1.1 16.9-1.6 33.8-0.3 16.9-0.3 31.8v6.2h24.5q14.3 0 22.2-9.4 8-9.5 8-26.6 0-17.5-7.5-26.7-7.5-9.1-22.7-9.1zm-60.1-12.9h53.1q13.3 0 23.8 3.4 10.5 3.2 17.7 9.5 7.3 6.2 10.9 15.3 3.8 9 3.8 20.5 0 4.9-1.2 10.5-1.3 5.5-4.2 10.8-2.8 5.4-7.3 10.5-4.4 4.9-10.9 8.6-6.4 3.8-15 6.1-8.4 2.2-19.2 2.2h-24.5q0.3 14.6 0.8 29.9 0.6 15.3 1.9 29.9h-29.7q0.9-9.7 1.4-19.9 0.6-10.3 0.9-20.4 0.4-10.1 0.5-19.9 0.2-9.7 0.2-18.5 0-8.8-0.2-18.5-0.1-9.7-0.5-19.8-0.3-10.1-0.9-20.3-0.5-10.1-1.4-19.9zm51.5 12.9h-22.6q-1.1 16.9-1.6 33.8-0.3 16.9-0.3 31.8v6.2h24.5q14.3 0 22.2-9.4 8-9.5 8-26.6 0-17.5-7.5-26.7-7.5-9.1-22.7-9.1zm97.6-12.9h30q-1 9.8-1.6 19.9-0.5 10.2-0.8 20.3-0.3 10.1-0.5 19.8-0.1 9.7-0.1 18.5 0 8.8 0.1 18.5 0.2 9.8 0.5 19.9 0.3 10.1 0.8 20.4 0.5 10.2 1.3 19.9h-29.7q0.9-9.7 1.4-19.9 0.6-10.3 0.9-20.4 0.4-10.1 0.5-19.9 0.2-9.7 0.2-18.5 0-8.8-0.2-18.5-0.1-9.7-0.5-19.8-0.3-10.1-0.9-20.3-0.5-10.1-1.4-19.9zm-8.6 0h30q-0.9 9.8-1.6 19.9-0.5 10.2-0.8 20.3-0.3 10.1-0.4 19.8-0.2 9.7-0.2 18.5 0 8.8 0.2 18.5 0.1 9.8 0.4 19.9 0.3 10.1 0.8 20.4 0.5 10.2 1.3 19.9h-29.7q0.9-9.7 1.4-19.9 0.6-10.3 1-20.4 0.3-10.1 0.4-19.9 0.2-9.7 0.2-18.5 0-8.8-0.2-18.5-0.1-9.7-0.4-19.8-0.4-10.1-1-20.3-0.5-10.1-1.4-19.9zm64.2 13.4v-13.4h108.9v13.4h-40.6q-1.2 16.8-1.6 33.7-0.3 16.8-0.3 31.4 0 8.8 0.2 18.5 0.1 9.8 0.5 19.9 0.3 10.1 0.7 20.4 0.5 10.2 1.3 19.9h-29.7q0.9-9.7 1.4-19.9 0.7-10.3 1-20.4 0.3-10.1 0.5-19.9 0.1-9.7 0.1-18.5 0-14.6-0.5-31.4-0.3-16.9-1.4-33.7zm-8.6 0v-13.4h108.9v13.4h-40.5q-1.3 16.8-1.6 33.7-0.3 16.8-0.3 31.4 0 8.8 0.1 18.5 0.2 9.8 0.5 19.9 0.3 10.1 0.8 20.4 0.5 10.2 1.3 19.9h-29.8q1-9.7 1.5-19.9 0.6-10.3 0.9-20.4 0.3-10.1 0.5-19.9 0.2-9.7 0.2-18.5 0-14.6-0.5-31.4-0.3-16.9-1.4-33.7zm250 143.8h-30.4l0.8-13.8q-3.8 3-7.8 6.1-3.9 3-8.9 5.4-4.9 2.3-11.2 3.8-6.2 1.4-14.8 1.4-9.9 0-18.5-2.9-8.4-3-14.8-8.6-6.2-5.6-9.8-13.8-3.7-8.4-3.7-19.2 0-13.9 5.9-23.7 5.9-9.8 17.3-16.7 11.6-6.9 28.7-11.1 17.1-4.2 39.5-6.9 0-13.8-2-22.8-1.9-9.1-5.7-14.3-3.9-5.4-9.6-7.5-5.5-2-12.9-2-6.3 0-12.7 1.5-6.3 1.3-12.7 3.7-6.2 2.4-12.6 5.6-6.2 3.1-12.2 6.6v-22.2q6.7-1.9 12.7-3.4 6.1-1.6 12.1-2.7 6.2-1.1 12.4-1.8 6.2-0.7 13.2-0.7 14 0 24.3 2.7 10.5 2.8 17.4 8.7 6.9 6 10.3 15.3 3.5 9.4 3.5 22.6 0 1.2-0.2 4.2 0 3-0.1 7 0 4-0.2 8.6 0 4.5-0.2 9 0 4.5-0.1 8.5 0 3.9 0 6.5 0 6.1 0.1 13.7 0.2 7.6 0.5 16.1 0.5 8.6 1 18 0.6 9.4 1.4 19.1zm-28.4-31.2q0.4-11.7 0.7-25 0.4-13.3 0.4-30.5-20.2 1.7-32.6 5.6-12.4 3.9-19.3 9.6-6.8 5.6-9.2 12.8-2.4 7.2-2.4 15.7 0 7.2 1.8 13 1.9 5.9 5.4 10 3.5 4 8.3 6.2 4.7 2.1 10.8 2.1 6.8 0 11.9-1.7 5.2-1.8 9.4-4.6 4.3-2.8 7.8-6.2 3.5-3.6 7-7zm19.8 31.2h-30.3l0.8-13.8q-3.9 3-7.8 6.1-4 3-8.9 5.4-5 2.3-11.3 3.8-6.2 1.4-14.8 1.4-9.9 0-18.5-2.9-8.4-3-14.7-8.6-6.2-5.6-9.9-13.8-3.7-8.4-3.7-19.2 0-13.9 5.9-23.7 5.9-9.8 17.4-16.7 11.6-6.9 28.6-11.1 17.1-4.2 39.6-6.9 0-13.8-2.1-22.8-1.9-9.1-5.7-14.3-3.8-5.4-9.6-7.5-5.5-2-12.8-2-6.4 0-12.8 1.5-6.3 1.3-12.7 3.7-6.2 2.4-12.5 5.6-6.2 3.1-12.3 6.6v-22.2q6.7-1.9 12.7-3.4 6.1-1.6 12.1-2.7 6.2-1.1 12.4-1.8 6.2-0.7 13.2-0.7 14 0 24.3 2.7 10.5 2.8 17.4 8.7 7 6 10.3 15.3 3.5 9.4 3.5 22.6 0 1.2-0.2 4.2 0 3-0.1 7 0 4-0.2 8.6 0 4.5-0.1 9 0 4.5-0.2 8.5 0 3.9 0 6.5 0 6.1 0.2 13.7 0.1 7.6 0.4 16.1 0.5 8.6 1 18 0.6 9.4 1.4 19.1zm-28.4-31.2q0.4-11.7 0.8-25 0.3-13.3 0.3-30.5-20.2 1.7-32.6 5.6-12.4 3.9-19.3 9.6-6.8 5.6-9.2 12.8-2.4 7.2-2.4 15.7 0 7.2 1.8 13 1.9 5.9 5.4 10 3.5 4 8.3 6.2 4.7 2.1 10.8 2.1 6.8 0 11.9-1.7 5.2-1.8 9.4-4.6 4.3-2.8 7.8-6.2 3.5-3.6 7-7zm73.5-126h30.1q-1 9.8-1.6 19.9-0.5 10.2-0.8 20.3-0.3 10.1-0.5 19.8-0.1 9.7-0.1 18.5 0 14.8 0.3 31.7 0.3 16.8 1.4 33.6h64.4v13.4h-93.2q1-9.7 1.5-19.9 0.6-10.3 0.9-20.4 0.3-10.1 0.5-19.9 0.2-9.7 0.2-18.5 0-8.8-0.2-18.5-0.2-9.7-0.5-19.8-0.3-10.1-0.9-20.3-0.5-10.1-1.5-19.9zm-8.5 0h30q-0.9 9.8-1.6 19.9-0.5 10.2-0.8 20.3-0.3 10.1-0.5 19.8-0.1 9.7-0.1 18.5 0 14.8 0.3 31.7 0.3 16.8 1.4 33.6h64.4v13.4h-93.1q0.9-9.7 1.4-19.9 0.6-10.3 0.9-20.4 0.4-10.1 0.5-19.9 0.2-9.7 0.2-18.5 0-8.8-0.2-18.5-0.1-9.7-0.5-19.8-0.3-10.1-0.9-20.3-0.5-10.1-1.4-19.9z"/></svg>